# xmcd CD database file
#
# Track frame offsets:
#	150
#	36160
#	59650
#	81000
#	109052
#	125807
#	160105
#	180242
#	208640
#	237605
#	251615
#	276745
#	305515
#
# Disc length: 4378 seconds
#
# Revision: 0
# Processed by: cddbd v1.5.2PL0 Copyright (c) Steve Scherf et al.
# Submitted via: CDex 1.51
#
DISCID=bf11180d
DTITLE=Various Artist - CONCORD RECORDS - ESSENTIAL NEW RECORDINGS
DYEAR=1997
DGENRE=Jazz
TTITLE0=CHICK COREA - BOUNCIN' WITH BUD
TTITLE1=GARY BURTON - SEPTEMBER SONG
TTITLE2=KARRIN ALLYSON - IT COULD HAPPEN TO YOU - FRIED BANANAS
TTITLE3=BROTH JACK MC DUFF - THEME FROM    " MISSION IMPOSSIBLE
TTITLE4=PONCHO SANCHEZ(W/ MONGO SANTAMARIA ) - WATERMELON MAN
TTITLE5=JOHN PATITUCCI - ONE MORE ANGEL
TTITLE6=GENE HARRIS - LEAN ON ME
TTITLE7=PETER ESCOVEDO - BOOMERANG
TTITLE8=SCOTT HAMILTON - BLUES IN MY HEART
TTITLE9=ROSEMARY CLOONEY - THAT FACE
TTITLE10=JEFF LINSKY - PASSPORT TO THE HEART
TTITLE11=JESSE DAVIS - TAI'S TUNE
TTITLE12=NNENNA FREELON - I THOUGHT ABOUT YOU
EXTD=YEAR: 1997
EXTT0=
EXTT1=
EXTT2=
EXTT3=
EXTT4=
EXTT5=
EXTT6=
EXTT7=
EXTT8=
EXTT9=
EXTT10=
EXTT11=
EXTT12=
PLAYORDER=
